<svg width="25" height="25" viewBox="0 0 25 25" fill="none" xmlns="http://www.w3.org/2000/svg">
<g clip-path="url(#clip0)">
<path d="M23.2759 25H1.72412C0.775879 25 0 24.2241 0 23.2759V1.72412C0 0.775879 0.775879 0 1.72412 0H23.2759C24.2241 0 25 0.775879 25 1.72412V23.2759C25 24.2241 24.2241 25 23.2759 25Z" fill="#4D6FA9"/>
<path d="M21.1207 4.31072V8.62107H17.2414C16.7673 8.62107 16.3793 9.00901 16.3793 9.48313V12.0694H20.6897V16.3797H16.3793V25.0004H12.069V16.3797H8.62069V12.0693H12.069V9.48308C12.069 6.76755 14.1379 4.5262 16.8103 4.31067H21.1207V4.31072Z" fill="white"/>
</g>
<defs>
<clipPath id="clip0">
<rect width="25" height="25" fill="white"/>
</clipPath>
</defs>
</svg>
