<svg width="181" height="23" viewBox="0 0 181 23" fill="none" xmlns="http://www.w3.org/2000/svg">
<path fill-rule="evenodd" clip-rule="evenodd" d="M85.0004 1.27964L79.4628 16.5958L74.4242 1.90427C72.7032 2.53496 70.2642 2.53556 68.6918 2.07133L76.5121 22.3573H82.1183L90.7251 1.49451C89.1442 1.08535 86.9012 0.894694 85.0004 1.27964Z" fill="#00AEEF"/>
<path fill-rule="evenodd" clip-rule="evenodd" d="M143.759 18.0214L143.764 15.6899H151.511L153.239 10.9949H138.36V22.3575H154.972V18.0214H143.759Z" fill="#00AEEF"/>
<path fill-rule="evenodd" clip-rule="evenodd" d="M6.61991 2.42218C4.02878 3.46141 1.65293 3.26531 -0.00012207 2.94997V7.70552C2.91151 8.22241 5.79308 7.5306 8.28318 6.65902C13.4727 4.84262 16.6922 6.35639 17.7691 6.65902V1.79149C15.5406 1.10513 11.7949 0.346125 6.61991 2.42218Z" fill="#00AEEF"/>
<path fill-rule="evenodd" clip-rule="evenodd" d="M6.10352e-05 22.3575H5.28634L5.29897 16.6855H15.7663V12.0662H6.10352e-05V22.3575Z" fill="#00AEEF"/>
<path fill-rule="evenodd" clip-rule="evenodd" d="M101.725 1.46496C99.4245 2.30385 97.4148 2.65006 95.3895 2.27177V6.85906C98.3547 8.00967 101.587 5.60072 103.453 6.00443C104.042 7.61867 105.794 12.0704 105.794 12.0704H91.695L91.6926 16.6855H94.7966L92.3805 22.3574H97.9283L100.142 16.6855H107.562L109.73 22.3574H115.484L106.41 0.6073C105.557 0.685984 103.967 0.647852 101.725 1.46496Z" fill="#00AEEF"/>
<path fill-rule="evenodd" clip-rule="evenodd" d="M125.029 2.10181C121.982 3.18342 119.083 3.52418 114.958 1.75137V6.69697C117.254 7.58489 120.415 7.84334 121.948 7.58731V22.3575H127.347V6.42944C129.402 5.70071 131.406 5.458 133.749 6.21458V1.25747C132.895 1.08255 131.85 0.955444 130.644 0.955444C129.398 0.955444 127.267 1.3071 125.029 2.10181Z" fill="#00AEEF"/>
<path fill-rule="evenodd" clip-rule="evenodd" d="M145.401 2.28095C141.889 3.47997 139.961 2.87229 138.36 2.43105V7.13395C141.395 7.65266 142.856 7.70168 147.03 6.49237C150.688 5.43316 152.488 5.51668 154.972 6.10197V1.41118C152.871 1.20963 150.711 0.466972 145.401 2.28095Z" fill="#00AEEF"/>
<path fill-rule="evenodd" clip-rule="evenodd" d="M66.5774 9.14244C66.5774 6.29286 64.7884 3.2508 61.3657 1.80362C57.7577 0.277752 54.4257 1.19836 51.2778 2.17767C48.22 3.12854 45.932 2.79565 44.6433 2.53478V7.03673C48.6488 7.79209 52.0535 6.66751 54.8334 5.85283C58.9676 4.6423 61.4372 6.95017 61.4372 9.09825C61.4372 11.4812 59.0866 12.1464 57.9856 12.1464H45.1508L46.7359 16.7609H48.6614V22.4328H54.0613V16.7609H58.1173L61.0836 22.4328H67.1913L63.0572 15.5437C64.6483 14.5644 66.5774 12.7238 66.5774 9.14244Z" fill="#00AEEF"/>
<path fill-rule="evenodd" clip-rule="evenodd" d="M176.57 14.5647C179.527 13.2029 180.322 10.2903 180.322 8.23849C180.322 5.71273 178.662 0.705383 171.963 0.705383C167.15 0.705383 165.198 3.22751 159.289 2.36986V7.06065C162.943 7.73309 165.419 7.11209 167.931 6.25444C169.558 5.6988 175.311 4.68983 175.311 8.53809C175.311 10.4761 173.32 10.9949 171.736 10.9949L159.503 10.9906V15.6899H161.82V22.3575H167.219V15.6899H171.468L174.834 22.3575H180.942L176.57 14.5647Z" fill="#00AEEF"/>
<path fill-rule="evenodd" clip-rule="evenodd" d="M28.6003 1.80545C25.7416 2.99359 22.7746 3.14006 22.7746 3.14006V7.88351C27.2846 7.88351 31.8036 5.09385 32.3634 6.27472L34.5522 12.0707H20.9935V16.6852H23.584L21.1648 22.3584H26.7115L28.9286 16.6852H36.3454L38.5138 22.3584H44.2679L35.2901 0.756532C32.9599 0.422427 31.5318 0.587059 28.6003 1.80545Z" fill="#00AEEF"/>
</svg>
