<svg width="16" height="15" viewBox="0 0 16 15" fill="none" xmlns="http://www.w3.org/2000/svg">
<path d="M15 4.96213H12.575V3.62581L14.1429 2.65561C14.6854 2.3386 14.8064 1.70123 14.5149 1.18283L14.5144 1.18203C14.3047 0.81122 13.9145 0.582453 13.4868 0.631451C13.3685 0.637532 13.2718 0.679192 13.2112 0.709835C13.1622 0.734613 13.1071 0.76873 13.0753 0.788402C13.0676 0.793198 13.0612 0.797135 13.0567 0.799869L13.0567 0.799852L13.0534 0.801895L10.6034 2.31068L10.425 2.42052V2.62999V4.96213H8H7.625V5.33713V6.78094V7.15594H8H8.3596L9.02675 14.0362L9.0596 14.375H9.4H13.6H13.9404L13.9732 14.0362L14.6404 7.15594H15H15.375V6.78094V5.33713V4.96213H15ZM1.7 0.630698C1.4111 0.630698 1.13646 0.749163 0.935807 0.956091C0.73554 1.16263 0.625 1.44035 0.625 1.7276V4.61523V5.69809C0.625 6.97547 1.32998 8.08583 2.375 8.62285V12.9171C2.375 13.3001 2.52241 13.6697 2.78832 13.9439C3.05461 14.2185 3.41827 14.375 3.8 14.375C4.18173 14.375 4.54539 14.2185 4.81168 13.9439C5.07759 13.6697 5.225 13.3001 5.225 12.9171V8.62285C6.27001 8.08583 6.975 6.97547 6.975 5.69809V4.61523V1.7276C6.975 1.44035 6.86446 1.16263 6.66419 0.956091L6.39497 1.21714L6.66419 0.95609C6.46354 0.749163 6.1889 0.630698 5.9 0.630698C5.6111 0.630698 5.33646 0.749163 5.13581 0.956091C4.99101 1.10542 4.89312 1.29196 4.85 1.49241C4.80688 1.29196 4.70899 1.10542 4.56419 0.956091C4.36354 0.749163 4.0889 0.630698 3.8 0.630698C3.5111 0.630698 3.23646 0.749163 3.03581 0.956091C2.89101 1.10542 2.79312 1.29196 2.75 1.49241C2.70688 1.29196 2.60899 1.10542 2.46419 0.956091L2.19497 1.21714L2.46419 0.956091C2.26354 0.749163 1.9889 0.630698 1.7 0.630698Z" stroke="#9E9E9E" stroke-width="0.75"/>
</svg>
