<svg width="20" height="19" viewBox="0 0 20 19" fill="none" xmlns="http://www.w3.org/2000/svg">
<mask id="path-1-outside-1" maskUnits="userSpaceOnUse" x="0" y="0" width="20" height="19" fill="black">
<rect fill="white" width="20" height="19"/>
<path fill-rule="evenodd" clip-rule="evenodd" d="M14.0544 1C15.7127 1 17.1843 1.72934 18.093 2.99947C19.1509 4.47799 19.2878 6.4864 18.4805 8.65556C17.5251 11.2067 10.9783 17.23 10.2349 17.9097C10.166 17.9712 10.0868 18 10.0006 18C9.91443 18 9.83329 17.9692 9.77041 17.9127C9.47528 17.6448 2.51574 11.3149 1.52283 8.65754C0.711459 6.49037 0.848378 4.47998 1.9062 2.99947C2.81494 1.72834 4.28656 1 5.94581 1C6.1517 1 6.37381 1.01389 6.60607 1.04068C8.45802 1.26197 9.46716 2.17091 9.99962 2.94589C10.5351 2.1719 11.5453 1.26197 13.3932 1.04068C13.6254 1.01389 13.8475 1 14.0544 1ZM6.52392 1.69858C6.3302 1.67575 6.13649 1.66484 5.94581 1.66484C4.51172 1.66484 3.24091 2.28998 2.46301 3.38052C1.535 4.67844 1.42851 6.47251 2.16178 8.4313C2.98634 10.6401 8.68115 15.9956 10.0006 17.2161C11.3191 15.9956 17.018 10.6392 17.8425 8.43031C18.5728 6.47152 18.4653 4.67844 17.5393 3.38151C16.6488 2.13618 15.1295 1.50607 13.4743 1.69957C11.594 1.92482 10.7126 2.94192 10.3049 3.7556C10.2532 3.85979 10.1386 3.92529 10.0006 3.92628C9.86575 3.92628 9.75013 3.86079 9.69637 3.7566C9.28866 2.94192 8.4063 1.92383 6.52392 1.69858Z"/>
</mask>
<path fill-rule="evenodd" clip-rule="evenodd" d="M14.0544 1C15.7127 1 17.1843 1.72934 18.093 2.99947C19.1509 4.47799 19.2878 6.4864 18.4805 8.65556C17.5251 11.2067 10.9783 17.23 10.2349 17.9097C10.166 17.9712 10.0868 18 10.0006 18C9.91443 18 9.83329 17.9692 9.77041 17.9127C9.47528 17.6448 2.51574 11.3149 1.52283 8.65754C0.711459 6.49037 0.848378 4.47998 1.9062 2.99947C2.81494 1.72834 4.28656 1 5.94581 1C6.1517 1 6.37381 1.01389 6.60607 1.04068C8.45802 1.26197 9.46716 2.17091 9.99962 2.94589C10.5351 2.1719 11.5453 1.26197 13.3932 1.04068C13.6254 1.01389 13.8475 1 14.0544 1ZM6.52392 1.69858C6.3302 1.67575 6.13649 1.66484 5.94581 1.66484C4.51172 1.66484 3.24091 2.28998 2.46301 3.38052C1.535 4.67844 1.42851 6.47251 2.16178 8.4313C2.98634 10.6401 8.68115 15.9956 10.0006 17.2161C11.3191 15.9956 17.018 10.6392 17.8425 8.43031C18.5728 6.47152 18.4653 4.67844 17.5393 3.38151C16.6488 2.13618 15.1295 1.50607 13.4743 1.69957C11.594 1.92482 10.7126 2.94192 10.3049 3.7556C10.2532 3.85979 10.1386 3.92529 10.0006 3.92628C9.86575 3.92628 9.75013 3.86079 9.69637 3.7566C9.28866 2.94192 8.4063 1.92383 6.52392 1.69858Z" fill="#464646"/>
<path d="M18.093 2.99947L17.7677 3.23222L18.093 2.99947ZM18.4805 8.65556L18.8551 8.79584L18.8554 8.79508L18.4805 8.65556ZM10.2349 17.9097L10.5012 18.2082L10.5048 18.2049L10.2349 17.9097ZM9.77041 17.9127L9.50155 18.2088L9.50291 18.2101L9.77041 17.9127ZM1.52283 8.65754L1.89753 8.51754L1.89744 8.51729L1.52283 8.65754ZM1.9062 2.99947L1.5808 2.76685L1.58074 2.76693L1.9062 2.99947ZM6.60607 1.04068L6.65352 0.643506L6.65191 0.643319L6.60607 1.04068ZM9.99962 2.94589L9.66994 3.1724L9.99848 3.65058L10.3286 3.17348L9.99962 2.94589ZM13.3932 1.04068L13.3473 0.643315L13.3456 0.643522L13.3932 1.04068ZM6.52392 1.69858L6.57144 1.30141L6.57072 1.30132L6.52392 1.69858ZM2.46301 3.38052L2.78839 3.61316L2.78865 3.6128L2.46301 3.38052ZM2.16178 8.4313L2.53653 8.29141L2.5364 8.29106L2.16178 8.4313ZM10.0006 17.2161L9.72902 17.5097L10.0007 17.7611L10.2724 17.5096L10.0006 17.2161ZM17.8425 8.43031L18.2173 8.5702L18.2173 8.57003L17.8425 8.43031ZM17.5393 3.38151L17.8648 3.14908L17.8647 3.14885L17.5393 3.38151ZM13.4743 1.69957L13.4279 1.30227L13.4267 1.30241L13.4743 1.69957ZM10.3049 3.7556L9.94728 3.57641L9.94662 3.57774L10.3049 3.7556ZM10.0006 3.92628V4.32629L10.0035 4.32627L10.0006 3.92628ZM9.69637 3.7566L9.33864 3.93563L9.3409 3.93999L9.69637 3.7566ZM18.4184 2.76673C17.4293 1.38438 15.8326 0.6 14.0544 0.6V1.4C15.5928 1.4 16.9393 2.07429 17.7677 3.23222L18.4184 2.76673ZM18.8554 8.79508C19.6947 6.53973 19.5747 4.38294 18.4184 2.76673L17.7677 3.23222C18.727 4.57305 18.8808 6.43307 18.1056 8.51604L18.8554 8.79508ZM10.5048 18.2049C10.8786 17.8632 12.7081 16.1811 14.5656 14.2627C15.494 13.3038 16.434 12.2813 17.2039 11.3346C17.9645 10.3994 18.5912 9.50053 18.8551 8.79584L18.1059 8.51528C17.8921 9.08618 17.3421 9.89688 16.5833 10.8298C15.8338 11.7513 14.9115 12.7554 13.9908 13.7062C12.1502 15.6071 10.3347 17.2765 9.96501 17.6145L10.5048 18.2049ZM10.0006 18.4C10.1844 18.4 10.3585 18.3355 10.5012 18.2082L9.96865 17.6112C9.96838 17.6114 9.97297 17.6075 9.98217 17.604C9.99132 17.6005 9.99845 17.6 10.0006 17.6V18.4ZM9.50291 18.2101C9.64083 18.3341 9.81782 18.4 10.0006 18.4V17.6C10.0053 17.6 10.0116 17.6009 10.0186 17.6035C10.0257 17.6062 10.0324 17.6103 10.0379 17.6153L9.50291 18.2101ZM1.14813 8.79755C1.42185 9.53011 2.08247 10.4689 2.87963 11.4407C3.6866 12.4246 4.66768 13.4825 5.622 14.4605C7.53129 16.4172 9.35191 18.073 9.50156 18.2088L10.0393 17.6165C9.89378 17.4844 8.08707 15.8413 6.19458 13.9018C5.24801 12.9317 4.28459 11.8922 3.49817 10.9334C2.70193 9.96264 2.12027 9.11366 1.89753 8.51754L1.14813 8.79755ZM1.58074 2.76693C0.4246 4.38504 0.304373 6.54387 1.14822 8.79779L1.89744 8.51729C1.11855 6.43687 1.27216 4.57492 2.23166 3.23202L1.58074 2.76693ZM5.94581 0.6C4.16685 0.6 2.56995 1.38324 1.5808 2.76685L2.2316 3.2321C3.05993 2.07345 4.40627 1.4 5.94581 1.4V0.6ZM6.65191 0.643319C6.40683 0.615048 6.16925 0.6 5.94581 0.6V1.4C6.13415 1.4 6.34079 1.41274 6.56023 1.43805L6.65191 0.643319ZM10.3293 2.71938C9.74016 1.86189 8.63378 0.880121 6.65352 0.643509L6.55861 1.43786C8.28226 1.64381 9.19416 2.47992 9.66994 3.1724L10.3293 2.71938ZM13.3456 0.643522C11.3691 0.880209 10.2623 1.86319 9.67068 2.7183L10.3286 3.17348C10.8079 2.48062 11.7215 1.64372 13.4407 1.43785L13.3456 0.643522ZM14.0544 0.6C13.83 0.6 13.5925 0.615044 13.3473 0.643319L13.439 1.43805C13.6584 1.41274 13.8651 1.4 14.0544 1.4V0.6ZM5.94581 2.06484C6.1213 2.06484 6.29938 2.07489 6.47711 2.09583L6.57072 1.30132C6.36102 1.27662 6.15167 1.26484 5.94581 1.26484V2.06484ZM2.78865 3.6128C3.48531 2.63616 4.62999 2.06484 5.94581 2.06484V1.26484C4.39344 1.26484 2.9965 1.94381 2.13736 3.14823L2.78865 3.6128ZM2.5364 8.29106C1.8336 6.4137 1.96135 4.76987 2.78839 3.61316L2.13762 3.14787C1.10865 4.58701 1.02341 6.53132 1.78717 8.57153L2.5364 8.29106ZM10.2723 16.9224C9.61481 16.3143 7.86806 14.6767 6.18458 12.9177C5.34254 12.038 4.52077 11.1324 3.86033 10.3131C3.19061 9.48226 2.71791 8.7773 2.53653 8.29141L1.78704 8.57119C2.01794 9.18972 2.5663 9.98251 3.23749 10.8152C3.91797 11.6594 4.75697 12.5831 5.60664 13.4709C7.30658 15.247 9.06697 16.8973 9.72902 17.5097L10.2723 16.9224ZM17.4678 8.29042C17.2864 8.77625 16.8135 9.48125 16.1434 10.3122C15.4826 11.1316 14.6604 12.0373 13.8179 12.9172C12.1335 14.6764 10.386 16.3143 9.72891 16.9226L10.2724 17.5096C10.9338 16.8974 12.6949 15.2468 14.3957 13.4705C15.2458 12.5826 16.0853 11.6587 16.7662 10.8144C17.4377 9.98166 17.9864 9.18879 18.2173 8.5702L17.4678 8.29042ZM17.2137 3.61394C18.0391 4.76989 18.1677 6.41308 17.4677 8.29058L18.2173 8.57003C18.9779 6.52995 18.8915 4.58698 17.8648 3.14908L17.2137 3.61394ZM13.5208 2.09686C15.0465 1.91849 16.4167 2.4993 17.2139 3.61417L17.8647 3.14885C16.8809 1.77305 15.2125 1.09365 13.4279 1.30227L13.5208 2.09686ZM10.6625 3.9348C11.0202 3.22094 11.796 2.30348 13.5219 2.09673L13.4267 1.30241C11.3919 1.54616 10.405 2.66291 9.94728 3.57641L10.6625 3.9348ZM10.0035 4.32627C10.263 4.3244 10.5322 4.19722 10.6632 3.93347L9.94662 3.57774C9.95904 3.55273 9.97655 3.53803 9.98864 3.53121C10.0002 3.52471 10.0046 3.52624 9.99776 3.52629L10.0035 4.32627ZM9.3409 3.93999C9.47347 4.19696 9.73966 4.32628 10.0006 4.32628V3.52628C9.9977 3.52628 10.003 3.52559 10.0135 3.53152C10.0244 3.53761 10.0402 3.55063 10.0519 3.5732L9.3409 3.93999ZM6.47639 2.09574C8.20433 2.30251 8.98102 3.22097 9.33867 3.93561L10.0541 3.57758C9.5963 2.66287 8.60826 1.54514 6.57144 1.30141L6.47639 2.09574Z" fill="#464646" mask="url(#path-1-outside-1)"/>
</svg>
