<svg width="17" height="13" viewBox="0 0 17 13" fill="none" xmlns="http://www.w3.org/2000/svg">
<path d="M16.9053 6.38393C16.9527 6.43036 17 6.52321 17 6.61607C17 6.70893 16.9763 6.80179 16.929 6.87143L16.1954 7.77679C16.1481 7.84643 16.0534 7.89286 15.9588 7.89286C15.8641 7.89286 15.7694 7.86964 15.6985 7.8L8.74108 2.20536C8.67009 2.13571 8.57543 2.1125 8.50444 2.1125C8.43344 2.1125 8.33879 2.13571 8.26779 2.20536L1.31043 7.8C1.23943 7.84643 1.14478 7.89286 1.05012 7.89286C0.95546 7.89286 0.884466 7.84643 0.813473 7.77679L0.0798714 6.87143C0.00887784 6.80179 -0.014791 6.70893 0.00887352 6.61607C0.00887352 6.52321 0.0562083 6.45357 0.103537 6.38393L7.60518 0.324999C7.86549 0.11607 8.14947 0 8.48077 0C8.81208 0 9.11971 0.11607 9.40369 0.324999L12.0305 2.46072V0.348214C12.0305 0.255357 12.0541 0.162499 12.1251 0.0928557C12.1961 0.0232129 12.2671 0 12.3854 0H14.0419C14.1366 0 14.2312 0.0232129 14.3022 0.0928557C14.3732 0.162499 14.3969 0.232143 14.3969 0.348214V4.3875L16.9053 6.38393ZM14.4206 8.14822C14.4206 8.03214 14.3732 7.93928 14.3022 7.86964L8.74108 3.4125C8.67009 3.36607 8.57543 3.31965 8.50444 3.31965C8.43344 3.31965 8.33879 3.34286 8.26779 3.4125L2.70663 7.86964C2.63564 7.93928 2.58831 8.03214 2.58831 8.14822V12.3036C2.58831 12.4893 2.6593 12.6518 2.80129 12.7911C2.94328 12.9304 3.10893 13 3.29824 13H6.7296C6.82426 13 6.91892 12.9768 6.98991 12.9071C7.0609 12.8375 7.08457 12.7679 7.08457 12.6518V9.40179C7.08457 9.30893 7.10823 9.21607 7.17923 9.14643C7.25022 9.07678 7.32121 9.05357 7.43953 9.05357H9.56934C9.664 9.05357 9.75866 9.07678 9.82965 9.14643C9.90064 9.21607 9.92431 9.28571 9.92431 9.40179V12.6518C9.92431 12.7446 9.94797 12.8375 10.019 12.9071C10.09 12.9768 10.161 13 10.2793 13H13.7106C13.8999 13 14.0656 12.9304 14.2076 12.7911C14.3496 12.6518 14.4206 12.4893 14.4206 12.3036V8.14822Z" fill="#D4D4D4"/>
</svg>
