<svg width="13" height="13" viewBox="0 0 13 13" fill="none" xmlns="http://www.w3.org/2000/svg">
<path d="M12.1875 2.4375H3.25C2.80127 2.4375 2.4375 2.80127 2.4375 3.25V12.1875C2.4375 12.6362 2.80127 13 3.25 13H12.1875C12.6362 13 13 12.6362 13 12.1875V3.25C13 2.80127 12.6362 2.4375 12.1875 2.4375ZM12.1875 12.1875H3.25V3.25H12.1875V12.1875Z" fill="#00AEEF"/>
<path d="M0.8125 0.8125H9.75V1.625H10.5625V0.8125C10.5625 0.363771 10.1987 0 9.75 0H0.8125C0.363771 0 0 0.363771 0 0.8125V9.75C0 10.1987 0.363771 10.5625 0.8125 10.5625H1.625V9.75H0.8125V0.8125Z" fill="#00AEEF"/>
</svg>
