<svg width="36" height="23" viewBox="0 0 36 23" fill="none" xmlns="http://www.w3.org/2000/svg">
<path d="M11.0452 22.6294C16.9016 22.6294 21.6491 17.6753 21.6491 11.5641C21.6491 5.4528 16.9016 0.498657 11.0452 0.498657C5.18879 0.498657 0.44125 5.4528 0.44125 11.5641C0.44125 17.6753 5.18879 22.6294 11.0452 22.6294Z" fill="#EE0005"/>
<path d="M24.2194 22.6294C30.0758 22.6294 34.8233 17.6753 34.8233 11.5641C34.8233 5.4528 30.0758 0.498657 24.2194 0.498657C18.363 0.498657 13.6155 5.4528 13.6155 11.5641C13.6155 17.6753 18.363 22.6294 24.2194 22.6294Z" fill="#F9A000"/>
<path d="M13.6155 11.564C13.6155 15.0775 15.185 18.2082 17.632 20.2351C20.079 18.2081 21.6486 15.0775 21.6486 11.564C21.6486 8.0505 20.0791 4.91981 17.632 2.89288C15.1851 4.91997 13.6155 8.05059 13.6155 11.564Z" fill="#FF6300"/>
</svg>
