<svg width="13" height="13" viewBox="0 0 13 13" fill="none" xmlns="http://www.w3.org/2000/svg">
<path fill-rule="evenodd" clip-rule="evenodd" d="M8.8503 11.8115C7.47892 12.3182 5.97082 12.3139 4.60243 11.7992C1.76709 10.734 0.19168 7.55745 0.979387 4.65326C1.37668 3.18771 2.32419 1.95605 3.58673 1.15796C2.99865 3.43892 3.66098 5.92079 5.33721 7.6205C5.33798 7.62122 5.33855 7.62199 5.33927 7.62266C5.33952 7.62297 5.33978 7.62317 5.34009 7.62348C5.3403 7.62374 5.34055 7.62399 5.34081 7.62425C5.34137 7.62482 5.34194 7.62523 5.3425 7.62579C7.04242 9.30305 9.52455 9.96518 11.8062 9.37658C11.1122 10.4777 10.085 11.3546 8.8503 11.8115ZM12.4923 8.33486C10.2397 9.27482 7.65111 8.80656 5.90377 7.09596C5.89776 7.08912 5.89205 7.08219 5.88542 7.07545C4.15946 5.32842 3.68467 2.72636 4.62807 0.467549C4.77503 0.116087 4.32542 -0.0817393 4.06285 0.0323318C0.750219 1.46685 -0.8439 5.25674 0.447519 8.62775C1.06001 10.2037 2.25416 11.535 3.78127 12.276C7.12469 13.9117 11.1611 12.5273 12.7967 9.18382C12.8425 9.0903 12.8861 8.99565 12.9275 8.90008C13.0406 8.63854 12.8427 8.18791 12.4923 8.33486Z" fill="#9E9E9E"/>
</svg>
