<svg width="25" height="25" viewBox="0 0 25 25" fill="none" xmlns="http://www.w3.org/2000/svg">
<g clip-path="url(#clip0)">
<path d="M12.4999 25.0006C19.4033 25.0006 24.9997 19.4042 24.9997 12.5007C24.9997 5.59723 19.4033 0.000854492 12.4999 0.000854492C5.59637 0.000854492 0 5.59723 0 12.5007C0 19.4042 5.59637 25.0006 12.4999 25.0006Z" fill="#41B4E6"/>
<path d="M25 12.5001C25 12.1955 24.9886 11.8937 24.9672 11.5945L19.7866 6.414L5.21352 12.1464L10.7892 17.7222L10.8624 17.9854L10.9571 17.89L10.9575 17.8904L10.8624 17.9854L17.0302 24.1533C21.6943 22.3388 25 17.8057 25 12.5001Z" fill="#0091C8"/>
<path d="M11.286 14.3212L16.935 18.5862L19.7865 6.414L5.21338 12.1464L9.6478 13.6152L17.7407 8.18666L11.286 14.3212Z" fill="white"/>
<path d="M9.64778 13.6152L10.8623 17.9855L11.286 14.3212L17.7407 8.18665L9.64778 13.6152Z" fill="#D2D2D7"/>
<path d="M13.122 15.7074L10.8624 17.9855L11.2861 14.3213L13.122 15.7074Z" fill="#B9B9BE"/>
</g>
<defs>
<clipPath id="clip0">
<rect width="25" height="25" fill="white"/>
</clipPath>
</defs>
</svg>
