<svg width="15" height="15" viewBox="0 0 15 15" fill="none" xmlns="http://www.w3.org/2000/svg">
<path d="M14.5693 8.12922C15.3292 7.37275 15.0944 5.84261 13.7782 5.84261L10.3152 5.84493C10.4467 5.11158 10.6372 3.8959 10.6297 3.78112C10.5569 2.69405 9.86401 1.37103 9.83403 1.31688C9.70765 1.08152 9.06954 0.762419 8.42738 0.899149C7.59713 1.07688 7.51233 1.60649 7.51571 1.7525C7.51571 1.7525 7.55149 3.20132 7.55497 3.58792C7.15803 4.45974 5.78937 6.75089 5.37454 6.92746C5.27533 6.86741 5.16277 6.83512 5.04567 6.83512H0.6705C0.298892 6.83512 0 7.13565 0 7.50552L0.000580185 13.5523C0.0265918 13.8783 0.303533 14.1339 0.630661 14.1339H4.56045C4.90894 14.1339 5.19227 13.8506 5.19227 13.5021V13.3014C5.19227 13.3014 5.33828 13.2904 5.40461 13.3331C5.65728 13.4935 5.96952 13.6954 6.37681 13.6954H12.2412C14.4337 13.6954 14.1984 11.7493 13.9981 11.4838C14.3686 11.0805 14.5976 10.3691 14.2849 9.80711C14.5249 9.5527 14.9473 8.85339 14.5693 8.12922ZM4.42546 13.501H0.6295V7.46626H4.42546V13.501ZM13.5463 8.07729L13.5106 8.22669C14.5209 8.51398 13.9831 9.67841 13.2584 9.75393L13.2226 9.90333C14.1913 10.1497 13.7292 11.3487 12.9704 11.4306L12.9346 11.5794C13.7257 11.7092 13.5342 13.0593 12.3357 13.0593L6.37082 13.0617C5.9496 13.0617 5.56591 12.5817 5.25609 12.5817H4.98572V7.9365C5.32271 7.72763 5.73696 7.45649 5.9672 7.26087C6.40224 6.88985 8.18283 4.01252 8.18283 3.65242C8.18283 3.29231 8.14357 1.73452 8.14357 1.73452C8.14357 1.73452 8.49265 1.28449 9.27213 1.61278C9.27213 1.61278 9.92812 2.84286 9.99504 3.82318C9.99504 3.82318 9.69963 5.84261 9.54095 6.47617H13.6762C14.6922 6.47734 14.4983 7.92789 13.5463 8.07729Z" fill="#838383"/>
</svg>
