<svg width="14" height="14" viewBox="0 0 14 14" fill="none" xmlns="http://www.w3.org/2000/svg">
<path d="M1 13H0.625V13.375H1V13ZM13.1875 13V13.375H13.5625V13H13.1875ZM7.5 7.75C6.23624 7.75 4.56226 8.02997 3.19267 8.59267C2.50779 8.87405 1.87684 9.23509 1.41154 9.68617C0.942578 10.1408 0.625 10.7055 0.625 11.375H1.375C1.375 10.9639 1.56498 10.582 1.93359 10.2247C2.30587 9.86374 2.8425 9.54736 3.47768 9.2864C4.74821 8.7644 6.32423 8.5 7.5 8.5V7.75ZM0.625 11.375V13H1.375V11.375H0.625ZM1 13.375H13.1875V12.625H1V13.375ZM13.5625 13V11.375H12.8125V13H13.5625ZM13.5625 11.375C13.5625 10.7066 13.246 10.1433 12.7929 9.69024C12.3427 9.24006 11.7396 8.87862 11.1068 8.59694C9.84512 8.03533 8.3715 7.75 7.5 7.75V8.5C8.25655 8.5 9.62668 8.75904 10.8018 9.28212C11.3873 9.54278 11.9008 9.85877 12.2626 10.2206C12.6216 10.5795 12.8125 10.9628 12.8125 11.375H13.5625ZM7.5 7.6875C9.50211 7.6875 11.125 6.06586 11.125 4.0625H10.375C10.375 5.65148 9.08806 6.9375 7.5 6.9375V7.6875ZM11.125 4.0625C11.125 2.05915 9.50211 0.4375 7.5 0.4375V1.1875C9.08806 1.1875 10.375 2.47352 10.375 4.0625H11.125ZM7.5 0.4375C5.49673 0.4375 3.875 2.05923 3.875 4.0625H4.625C4.625 2.47344 5.91094 1.1875 7.5 1.1875V0.4375ZM3.875 4.0625C3.875 6.06577 5.49673 7.6875 7.5 7.6875V6.9375C5.91094 6.9375 4.625 5.65156 4.625 4.0625H3.875Z" fill="#707070"/>
</svg>
