<svg width="28" height="28" viewBox="0 0 28 28" fill="none" xmlns="http://www.w3.org/2000/svg">
<g clip-path="url(#clip0)">
<path d="M16.8006 0H11.1999C5.79537 0 1.39861 4.39677 1.39861 9.80126V14.0018C1.39861 17.7961 3.58687 21.2394 6.99932 22.859V27.5369C6.99932 27.943 7.50742 28.1554 7.79606 27.8669L11.8598 23.8031H16.8005C22.205 23.8031 26.6018 19.4063 26.6018 14.0018V9.80126C26.6018 4.39677 22.205 0 16.8006 0Z" fill="#665CAC"/>
<path d="M8.39948 22.859C4.98704 21.2393 2.79877 17.796 2.79877 14.0018V9.8012C2.79877 4.39677 7.19559 0 12.6 0H11.1999C5.79537 0 1.39861 4.39677 1.39861 9.80126V14.0018C1.39861 17.7961 3.58687 21.2394 6.99932 22.859V27.5369C6.99932 27.943 7.50742 28.1554 7.79606 27.8669L8.39948 27.2635V22.859Z" fill="#523494"/>
<path d="M21.0466 17.3964L20.627 15.1232C20.5923 14.9354 20.4468 14.7877 20.2596 14.7503L16.9593 14.0902C16.8061 14.0597 16.6481 14.1076 16.5377 14.2179L15.1969 15.5587C12.9379 14.5465 11.6841 13.29 10.581 10.934L11.9174 9.5976C12.0277 9.48724 12.0756 9.32897 12.0451 9.17596L11.3851 5.87568C11.3476 5.68848 11.1999 5.5429 11.0121 5.50823L8.73894 5.08867C8.67671 5.07724 8.61262 5.07844 8.55082 5.0925C7.95062 5.22883 7.40298 5.53125 6.96707 5.96728C6.21227 6.72207 5.9238 7.82348 6.13292 9.15244C6.48396 11.384 7.57727 14.4896 9.59442 16.5149L9.62198 16.5422C11.6456 18.5579 14.7513 19.6513 16.983 20.0024C17.2641 20.0467 17.5349 20.0687 17.7945 20.0687C18.7622 20.0687 19.573 19.7634 20.1682 19.1682C20.6042 18.7323 20.9067 18.1846 21.043 17.5845C21.0568 17.5227 21.0581 17.4587 21.0466 17.3964Z" fill="white"/>
<path d="M11.4611 10.0534L11.9174 9.59705L11.9179 9.59656L11.461 10.0534L11.4611 10.0534Z" fill="#E5E5E5"/>
<path d="M16.5377 14.2173L16.0769 14.6781L16.077 14.6782L16.5378 14.2174L16.5377 14.2173Z" fill="#E5E5E5"/>
<path d="M18.6744 19.1881C18.4147 19.1881 18.144 19.1662 17.8628 19.1219C15.6312 18.7708 12.5255 17.6774 10.5018 15.6616L10.4743 15.6343C8.45711 13.6091 7.36379 10.5035 7.01276 8.27188C6.84383 7.1982 7.00001 6.27316 7.46426 5.55933C7.28647 5.67794 7.11962 5.81401 6.96676 5.96686C6.21197 6.72165 5.92349 7.82306 6.13262 9.15202C6.48365 11.3836 7.57697 14.4892 9.59412 16.5144L9.62168 16.5418C11.6453 18.5575 14.751 19.6509 16.9827 20.002C17.2638 20.0463 17.5346 20.0682 17.7942 20.0682C18.7619 20.0682 19.5727 19.763 20.1679 19.1678C20.3207 19.015 20.4568 18.8482 20.5754 18.6704C20.0484 19.0132 19.4064 19.1881 18.6744 19.1881Z" fill="#E5E5E5"/>
<path d="M14.9338 7.93433C14.676 7.93433 14.4671 8.14329 14.4671 8.40103C14.4671 8.65877 14.676 8.86773 14.9338 8.86773C15.9632 8.86773 16.8007 9.70522 16.8007 10.7347C16.8007 10.989 17.0131 11.2014 17.2674 11.2014C17.5217 11.2014 17.7341 10.989 17.7341 10.7347C17.7342 9.1905 16.4779 7.93433 14.9338 7.93433Z" fill="white"/>
<path d="M14.9337 6.06805C14.761 6.06805 14.5868 6.07762 14.4157 6.09649C14.1595 6.12477 13.9747 6.35538 14.003 6.61165C14.0313 6.86791 14.2624 7.05221 14.5182 7.02437C14.6553 7.00923 14.7951 7.00152 14.9337 7.00152C16.9925 7.00152 18.6675 8.67648 18.6675 10.7353C18.6675 10.8739 18.6598 11.0137 18.6446 11.1509C18.6167 11.4036 18.8045 11.6382 19.0573 11.666C19.3101 11.6939 19.5445 11.5061 19.5725 11.2533C19.5914 11.0822 19.6009 10.908 19.6009 10.7353C19.6009 8.16182 17.5072 6.06805 14.9337 6.06805Z" fill="white"/>
<path d="M14.9341 4.20093C14.7673 4.20093 14.5984 4.20727 14.4321 4.2199C14.1751 4.23937 13.9825 4.46359 14.002 4.72057C14.0214 4.9776 14.2463 5.17021 14.5026 5.15074C14.6455 5.13986 14.7907 5.13439 14.9341 5.13439C18.0224 5.13439 20.5348 7.64684 20.5348 10.7351C20.5348 11.1721 20.4844 11.607 20.385 12.0279C20.3279 12.2691 20.4765 12.5198 20.7156 12.5853C20.9672 12.6542 21.2334 12.4964 21.2934 12.2426C21.4094 11.7515 21.4683 11.2443 21.4683 10.7351C21.4683 7.13212 18.5371 4.20093 14.9341 4.20093Z" fill="white"/>
</g>
<defs>
<clipPath id="clip0">
<rect width="28" height="28" fill="white"/>
</clipPath>
</defs>
</svg>
